<svg xmlns="http://www.w3.org/2000/svg" xml:space="preserve" style="fill-rule:evenodd;clip-rule:evenodd;stroke-linejoin:round;stroke-miterlimit:2" viewBox="0 0 256 256"><path d="M31.5 0h130q.1.7.3 1.2l15 15c46.2 46.3 46.4 46.2 46.8 47.2.8 2 .3 44.7.4 62.1 0 2.6 1.1 2.5 2.5 2.5 25.8-.3 25.8.2 28 0 .5 0 1-.5 1.5-.5V256c-.6.7-.8 0-11.5 0H0c-1-.7 0-2.3 0-3.5v-125q.8.2 1.5.5c2.2.2 2.2-.3 28 0 2.6 0 2.4-.9 2.5-3.5.4-60 0-60 0-120v-3c-.1-.8-.4-.7-.5-1.5m176.2 95.4c0-.8.3-1.9.3-7.1q.4-3.8 0-8.3c-.3-2.8-36 0-36 0s-28.2-1.1-26.4.4l-1.2-.8c-.9-1.7-.3-42.6-.4-61.1 0-1.4-.2-2.6-2.5-2.5h-91c-1.4 0-2.6.2-2.5 2.5v107c0 1.4.2 2.6 2.5 2.5h142c13.4 0 15.6.7 15.5-2.5-.3-12.6-.3-25-.3-30M160 50.5c0 11.9-.7 13.4 2.5 13.5 2.3 0 29 .2 29.3-.1 1.3-1.2-.4-1.9-2-3.6l-26-26c-1.8-1.7-2.5-3.4-3.7-2.1zm80 100c0-4.9.5-5-.5-6-.6-.6-1.8-.5-2-.5h-203c-17 0-18.6-.6-18.5 2.5.4 15.2-.5 92 .5 93 .5.5.6.5 72 .5 74 0 74 .5 148 0 2.7 0 3.6.2 3.5-2.5zM53.5 230c-2.5 0-4.5.2-4.8-1.5v-66c.5-2.3 8.3-1.4 8.7-1 1.6 1.5-.3 58.6 1.1 60 1 .9 25.8.2 31 .4 4 .2 2 7.4 1.9 7.5-.6.7-.9.6-37.9.6m103 0c-3.7 0-3.8 0-4.1-.2-1-.3-1.2-.3-7.5-10.5-11.9-19.2-13.5-20.7-31.4-19.6-2 0-1.6 1.2-1.6 23.8 0 4.5 1.2 6.6-3.4 6.5-3.5 0-6 .5-6-2.5 0-5.3-.5-64.4.4-65.7.5-.7 5.2-.7 5.6-.6 30.3 0 30.3.1 35 1 10.4 1.8 14.7 11.9 13.9 19.3-2 18.9-22 15-16.7 18.8 11.4 8 13.5 17 21 27 2.7 3.7-3 2.8-5.2 2.7m-41-61c-4.6-.1-3.6 2-3.6 6.5 0 13.4-.5 15.8 1.6 16 .8.1 16.6.2 20 0 1.6 0 16.2-.8 14.5-13-.8-6-5.6-8-6.4-8.2-2-.8-5-2-26.1-1.3m83 62c-2.5-.3-11.8-.1-20-8.5a41 41 0 0 1-9.2-24c-2.8-45.6 50.3-48.5 59-20 .5 2-1.8 2.3-5.7 3.2s-2.9-1.5-6.5-7c-7.3-10.9-39.3-12.8-37.4 23.8 1.5 27.3 22.8 25.5 27.8 24.1 11.7-3.3 13.6-14.5 13.8-15.2s.8-2.2 8 .4c.9.2 3.2 1-2.3 10-7.7 12.5-18.3 13.5-27.5 13.2m-170-1c-2 0-4.1 0-4.5-.8s-.3-7.5-.2-7.6c.5-1.3 2.3-1.6 7.7-1.3 2.6 0 1.8 6.2 1.8 7.2 0 3.3-1.5 2.2-4.8 2.5"/></svg>